<?xml version="1.0" encoding="utf-8"?>
<!-- Generator: Adobe Illustrator 24.3.0, SVG Export Plug-In . SVG Version: 6.00 Build 0)  -->
<svg version="1.1" id="Layer_1" xmlns="http://www.w3.org/2000/svg" xmlns:xlink="http://www.w3.org/1999/xlink" x="0px" y="0px"
	 viewBox="0 0 300 300" style="enable-background:new 0 0 300 300;" xml:space="preserve">
<style type="text/css">
	.st0{fill:url(#SVGID_1_);}
	.st1{fill:url(#SVGID_2_);}
	.st2{fill:url(#SVGID_3_);}
	.st3{fill:url(#SVGID_4_);}
	.st4{fill:url(#SVGID_5_);}
	.st5{fill:#43AFEF;}
	.st6{fill:url(#SVGID_6_);}
	.st7{fill:url(#SVGID_7_);}
	.st8{fill:#2063AF;}
	.st9{fill:url(#SVGID_8_);}
	.st10{fill:#666666;}
	.st11{fill:#FFFFFF;}
	.st12{fill:#B3B3B3;}
	.st13{fill:none;stroke:#FFFFFF;stroke-miterlimit:10;}
	.st14{fill:none;stroke:#666666;stroke-width:3.24;stroke-miterlimit:10;}
</style>
<linearGradient id="SVGID_1_" gradientUnits="userSpaceOnUse" x1="88.9305" y1="150" x2="211.0695" y2="150">
	<stop  offset="0" style="stop-color:#2A499F"/>
	<stop  offset="0.5" style="stop-color:#00C8EA"/>
	<stop  offset="1" style="stop-color:#2A499F"/>
</linearGradient>
<path class="st0" d="M203.24,133.69v-15.26c0-4.63-3.76-8.39-8.39-8.39H97.32c-4.63,0-8.39,3.77-8.39,8.39v63.14
	c0,4.63,3.77,8.39,8.39,8.39h97.53c4.63,0,8.39-3.77,8.39-8.39v-15.26c4.35-0.22,7.83-3.79,7.83-8.19v-16.23
	C211.07,137.48,207.59,133.91,203.24,133.69z M194.85,184.47H97.32c-1.6,0-2.9-1.3-2.9-2.9v-63.14c0-1.6,1.3-2.9,2.9-2.9h97.53
	c1.6,0,2.9,1.3,2.9,2.9v15.22h-17.82c-4.55,0-8.23,3.69-8.23,8.23v16.23c0,4.55,3.69,8.23,8.23,8.23h17.82v15.22
	C197.75,183.17,196.45,184.47,194.85,184.47z M205.58,158.11c0,1.51-1.23,2.74-2.74,2.74h-22.9c-1.51,0-2.74-1.23-2.74-2.74v-16.23
	c0-1.51,1.23-2.74,2.74-2.74h22.9c1.51,0,2.74,1.23,2.74,2.74V158.11z"/>
</svg>
