<?xml version="1.0" encoding="utf-8"?>
<!-- Generator: Adobe Illustrator 24.3.0, SVG Export Plug-In . SVG Version: 6.00 Build 0)  -->
<svg version="1.1" id="Layer_1" xmlns="http://www.w3.org/2000/svg" xmlns:xlink="http://www.w3.org/1999/xlink" x="0px" y="0px"
	 viewBox="0 0 673 270" style="enable-background:new 0 0 673 270;" xml:space="preserve">
<style type="text/css">
	.st0{fill:url(#SVGID_1_);}
	.st1{fill:url(#SVGID_2_);}
	.st2{fill:url(#SVGID_3_);}
	.st3{fill:url(#SVGID_4_);}
	.st4{fill:url(#SVGID_5_);}
	.st5{fill:#43AFEF;}
	.st6{fill:url(#SVGID_6_);}
	.st7{fill:url(#SVGID_7_);}
	.st8{fill:#2063AF;}
	.st9{fill:url(#SVGID_8_);}
	.st10{fill:#666666;}
	.st11{fill:#FFFFFF;}
	.st12{font-family:'Orbitron-Medium';}
	.st13{font-size:10px;}
	.st14{letter-spacing:2;}
	.st15{fill:#B3B3B3;}
	.st16{fill:none;stroke:#FFFFFF;stroke-miterlimit:10;}
	.st17{fill:none;stroke:#666666;stroke-width:3.24;stroke-miterlimit:10;}
</style>
<g>
	<g>
		<rect x="59.49" y="45" class="st11" width="131" height="35"/>
		<text transform="matrix(1 0 0 1 59.9662 67.3086)" class="st10 st12 st13 st14">COLLECTIONS</text>
	</g>
	<text transform="matrix(1 0 0 1 213.4843 67.3086)" class="st10 st12 st13 st14">[ FEATURED ]</text>
	<text transform="matrix(1 0 0 1 338.0581 67.3086)" class="st10 st12 st13 st14">[ LATEST LISTINGS ]</text>
	<text transform="matrix(1 0 0 1 517.4712 67.3086)" class="st10 st12 st13 st14">[ UPCOMING ]</text>
	<g>
		<rect x="105.76" y="81.93" class="st11" width="154.85" height="22.26"/>
		<rect x="105.76" y="106.08" class="st15" width="154.85" height="22.26"/>
		<rect x="105.76" y="130.23" class="st11" width="154.85" height="22.26"/>
		<g>
			<text transform="matrix(1 0 0 1 114.36 97.0979)" class="st10 st12 st13 st14">INDIGE</text>
		</g>
		<g>
			<text transform="matrix(1 0 0 1 115.7833 120.5032)" class="st11 st12 st13 st14">LOOPBOMB</text>
		</g>
		<g>
			<text transform="matrix(1 0 0 1 115.7833 144.925)" class="st10 st12 st13 st14">CHEMICAL X</text>
		</g>
		<rect x="105.76" y="154.23" class="st11" width="154.85" height="22.26"/>
		<g>
			<text transform="matrix(1 0 0 1 115.7833 168.925)" class="st10 st12 st13 st14">CRASH PUNKS</text>
		</g>
		<g>
			<rect x="105.76" y="178.48" class="st11" width="154.85" height="22.26"/>
			<g>
				<text transform="matrix(1 0 0 1 115.7833 193.1818)" class="st10 st12 st13 st14">PROJECT INDIGO</text>
			</g>
		</g>
		<g>
			<rect x="105.76" y="202.74" class="st11" width="154.85" height="22.26"/>
			<g>
				<text transform="matrix(1 0 0 1 115.7833 217.4386)" class="st10 st12 st13 st14">RADICAL RAD</text>
			</g>
		</g>
	</g>
</g>
</svg>
