<?xml version="1.0" encoding="utf-8"?>
<!-- Generator: Adobe Illustrator 24.3.0, SVG Export Plug-In . SVG Version: 6.00 Build 0)  -->
<svg version="1.1" id="Layer_1" xmlns="http://www.w3.org/2000/svg" xmlns:xlink="http://www.w3.org/1999/xlink" x="0px" y="0px"
	 viewBox="0 0 300 300" style="enable-background:new 0 0 300 300;" xml:space="preserve">
<style type="text/css">
	.st0{fill:url(#SVGID_1_);}
	.st1{fill:url(#SVGID_2_);}
	.st2{fill:url(#SVGID_3_);}
	.st3{fill:url(#SVGID_4_);}
	.st4{fill:url(#SVGID_5_);}
	.st5{fill:#43AFEF;}
	.st6{fill:url(#SVGID_6_);}
	.st7{fill:url(#SVGID_7_);}
	.st8{fill:#2063AF;}
	.st9{fill:url(#SVGID_8_);}
	.st10{fill:#666666;}
	.st11{fill:#FFFFFF;}
	.st12{fill:#B3B3B3;}
	.st13{fill:none;stroke:#FFFFFF;stroke-miterlimit:10;}
	.st14{fill:none;stroke:#666666;stroke-width:3.24;stroke-miterlimit:10;}
</style>
<linearGradient id="SVGID_1_" gradientUnits="userSpaceOnUse" x1="87.9874" y1="150" x2="212.0126" y2="150">
	<stop  offset="0" style="stop-color:#2A499F"/>
	<stop  offset="0.5" style="stop-color:#00C8EA"/>
	<stop  offset="1" style="stop-color:#2A499F"/>
</linearGradient>
<path class="st0" d="M96.85,132.28c0,2.45-1.98,4.43-4.43,4.43c-2.45,0-4.43-1.98-4.43-4.43c0-2.45,1.98-4.43,4.43-4.43
	C94.86,127.85,96.85,129.84,96.85,132.28z M115.45,127.85c-2.45,0-4.43,1.98-4.43,4.43c0,2.45,1.98,4.43,4.43,4.43
	c2.45,0,4.43-1.98,4.43-4.43C119.88,129.84,117.9,127.85,115.45,127.85z M138.48,127.85c-2.45,0-4.43,1.98-4.43,4.43
	c0,2.45,1.98,4.43,4.43,4.43c2.45,0,4.43-1.98,4.43-4.43C142.91,129.84,140.93,127.85,138.48,127.85z M161.52,127.85
	c-2.45,0-4.43,1.98-4.43,4.43c0,2.45,1.98,4.43,4.43,4.43c2.45,0,4.43-1.98,4.43-4.43C165.95,129.84,163.96,127.85,161.52,127.85z
	 M184.55,127.85c-2.45,0-4.43,1.98-4.43,4.43c0,2.45,1.98,4.43,4.43,4.43c2.45,0,4.43-1.98,4.43-4.43
	C188.98,129.84,187,127.85,184.55,127.85z M207.58,127.85c-2.45,0-4.43,1.98-4.43,4.43c0,2.45,1.98,4.43,4.43,4.43
	s4.43-1.98,4.43-4.43C212.01,129.84,210.03,127.85,207.58,127.85z M92.42,145.57c-2.45,0-4.43,1.98-4.43,4.43s1.98,4.43,4.43,4.43
	c2.45,0,4.43-1.98,4.43-4.43S94.86,145.57,92.42,145.57z M115.45,145.57c-2.45,0-4.43,1.98-4.43,4.43s1.98,4.43,4.43,4.43
	c2.45,0,4.43-1.98,4.43-4.43S117.9,145.57,115.45,145.57z M138.48,145.57c-2.45,0-4.43,1.98-4.43,4.43s1.98,4.43,4.43,4.43
	c2.45,0,4.43-1.98,4.43-4.43S140.93,145.57,138.48,145.57z M161.52,145.57c-2.45,0-4.43,1.98-4.43,4.43s1.98,4.43,4.43,4.43
	c2.45,0,4.43-1.98,4.43-4.43S163.96,145.57,161.52,145.57z M184.55,145.57c-2.45,0-4.43,1.98-4.43,4.43s1.98,4.43,4.43,4.43
	c2.45,0,4.43-1.98,4.43-4.43S187,145.57,184.55,145.57z M207.58,145.57c-2.45,0-4.43,1.98-4.43,4.43s1.98,4.43,4.43,4.43
	s4.43-1.98,4.43-4.43S210.03,145.57,207.58,145.57z M92.42,163.29c-2.45,0-4.43,1.98-4.43,4.43c0,2.45,1.98,4.43,4.43,4.43
	c2.45,0,4.43-1.98,4.43-4.43C96.85,165.27,94.86,163.29,92.42,163.29z M115.45,163.29c-2.45,0-4.43,1.98-4.43,4.43
	c0,2.45,1.98,4.43,4.43,4.43c2.45,0,4.43-1.98,4.43-4.43C119.88,165.27,117.9,163.29,115.45,163.29z M138.48,163.29
	c-2.45,0-4.43,1.98-4.43,4.43c0,2.45,1.98,4.43,4.43,4.43c2.45,0,4.43-1.98,4.43-4.43C142.91,165.27,140.93,163.29,138.48,163.29z
	 M161.52,163.29c-2.45,0-4.43,1.98-4.43,4.43c0,2.45,1.98,4.43,4.43,4.43c2.45,0,4.43-1.98,4.43-4.43
	C165.95,165.27,163.96,163.29,161.52,163.29z M184.55,163.29c-2.45,0-4.43,1.98-4.43,4.43c0,2.45,1.98,4.43,4.43,4.43
	c2.45,0,4.43-1.98,4.43-4.43C188.98,165.27,187,163.29,184.55,163.29z M207.58,163.29c-2.45,0-4.43,1.98-4.43,4.43
	c0,2.45,1.98,4.43,4.43,4.43s4.43-1.98,4.43-4.43C212.01,165.27,210.03,163.29,207.58,163.29z"/>
</svg>
