<?xml version="1.0" encoding="utf-8"?>
<!-- Generator: Adobe Illustrator 24.3.0, SVG Export Plug-In . SVG Version: 6.00 Build 0)  -->
<svg version="1.1" id="Layer_1" xmlns="http://www.w3.org/2000/svg" xmlns:xlink="http://www.w3.org/1999/xlink" x="0px" y="0px"
	 viewBox="0 0 310 310" style="enable-background:new 0 0 310 310;" xml:space="preserve">
<style type="text/css">
	.st0{fill:url(#SVGID_1_);}
	.st1{fill:url(#SVGID_2_);}
	.st2{fill:url(#SVGID_3_);}
	.st3{fill:url(#SVGID_4_);}
	.st4{fill:url(#SVGID_5_);}
	.st5{fill:#43AFEF;}
	.st6{font-family:'Orbitron-Medium';}
	.st7{font-size:17px;}
	.st8{letter-spacing:5;}
	.st9{fill:url(#SVGID_6_);}
	.st10{fill:url(#SVGID_7_);}
	.st11{fill:#2063AF;}
	.st12{font-size:9px;}
	.st13{letter-spacing:1;}
	.st14{fill:url(#SVGID_8_);}
	.st15{fill:#666666;}
	.st16{fill:#FFFFFF;}
	.st17{fill:#B3B3B3;}
	.st18{fill:none;stroke:#FFFFFF;stroke-miterlimit:10;}
	.st19{fill:none;stroke:#666666;stroke-width:3.24;stroke-miterlimit:10;}
</style>
<g>
	<g>
		<text transform="matrix(1 0 0 1 63.66 70.7181)" class="st5 st6 st7 st8">1.1391 EUR</text>
	</g>
	<g>
		<path class="st5" d="M220.79,70.18l-5.38-4.97c-0.25-0.23-0.26-0.61-0.02-0.85c0.23-0.24,0.62-0.25,0.87-0.02l4.54,4.19l4.39-4.05
			c0.25-0.23,0.63-0.22,0.87,0.02c0.23,0.24,0.22,0.62-0.02,0.85L220.79,70.18z"/>
	</g>
	<linearGradient id="SVGID_1_" gradientUnits="userSpaceOnUse" x1="247.1537" y1="64.9392" x2="286.0886" y2="64.9392">
		<stop  offset="0" style="stop-color:#2A499F"/>
		<stop  offset="0.5" style="stop-color:#00C8EA"/>
		<stop  offset="1" style="stop-color:#2A499F"/>
	</linearGradient>
	<path class="st0" d="M283.59,59.74v-4.87c0-1.47-1.2-2.67-2.67-2.67h-31.09c-1.47,0-2.67,1.2-2.67,2.67V75
		c0,1.47,1.2,2.67,2.67,2.67h31.09c1.47,0,2.67-1.2,2.67-2.67v-4.87c1.39-0.07,2.5-1.21,2.5-2.61v-5.17
		C286.09,60.95,284.98,59.81,283.59,59.74z M280.92,75.93h-31.09c-0.51,0-0.93-0.41-0.93-0.93V54.88c0-0.51,0.41-0.93,0.93-0.93
		h31.09c0.51,0,0.93,0.41,0.93,0.93v4.85h-5.68c-1.45,0-2.62,1.17-2.62,2.62v5.17c0,1.45,1.17,2.62,2.62,2.62h5.68V75
		C281.84,75.51,281.43,75.93,280.92,75.93z M284.34,67.53c0,0.48-0.39,0.87-0.87,0.87h-7.3c-0.48,0-0.87-0.39-0.87-0.87v-5.17
		c0-0.48,0.39-0.87,0.87-0.87h7.3c0.48,0,0.87,0.39,0.87,0.87V67.53z"/>
	<linearGradient id="SVGID_2_" gradientUnits="userSpaceOnUse" x1="23.9114" y1="65.0537" x2="48.2216" y2="65.0537">
		<stop  offset="0" style="stop-color:#2A499F"/>
		<stop  offset="0.5" style="stop-color:#00C8EA"/>
		<stop  offset="1" style="stop-color:#2A499F"/>
	</linearGradient>
	<path class="st1" d="M45.56,52.43l-5.31,8.34h7.98v2.22H23.91v-2.22h7.98l-5.31-8.34h2.84l6.65,10.5l6.65-10.5H45.56 M48.22,67.06
		v2.18h-8.13l5.38,8.44h-2.81l-6.59-10.34l-6.59,10.34h-2.81l5.38-8.44h-8.13v-2.18H48.22"/>
	<g>
		<g>
			<path class="st11" d="M112.18,92.13c0.83,0,1.5,0.67,1.5,1.5v15.28c0,0.83-0.67,1.5-1.5,1.5H65.62c-0.83,0-1.5-0.67-1.5-1.5
				V93.63c0-0.83,0.67-1.5,1.5-1.5H112.18 M112.18,91.63H65.62c-1.1,0-2,0.9-2,2v15.28c0,1.1,0.9,2,2,2h46.55c1.1,0,2-0.9,2-2V93.63
				C114.18,92.53,113.28,91.63,112.18,91.63L112.18,91.63z"/>
		</g>
		<g>
			<path class="st11" d="M223.3,92.13c0.83,0,1.5,0.67,1.5,1.5v15.28c0,0.83-0.67,1.5-1.5,1.5H118.04c-0.83,0-1.5-0.67-1.5-1.5
				V93.63c0-0.83,0.67-1.5,1.5-1.5H223.3 M223.3,91.63H118.04c-1.1,0-2,0.9-2,2v15.28c0,1.1,0.9,2,2,2H223.3c1.1,0,2-0.9,2-2V93.63
				C225.3,92.53,224.4,91.63,223.3,91.63L223.3,91.63z"/>
		</g>
		<g>
			<text transform="matrix(1 0 0 1 75.6221 104.2991)" class="st11 st6 st12 st13">EUR</text>
		</g>
		<g>
			<text transform="matrix(1 0 0 1 134.4844 104.2991)" class="st11 st6 st12 st13">1.1391 STX</text>
		</g>
		<g>
			<path class="st11" d="M112.18,113.27c0.83,0,1.5,0.67,1.5,1.5v15.28c0,0.83-0.67,1.5-1.5,1.5H65.62c-0.83,0-1.5-0.67-1.5-1.5
				v-15.28c0-0.83,0.67-1.5,1.5-1.5H112.18 M112.18,112.77H65.62c-1.1,0-2,0.9-2,2v15.28c0,1.1,0.9,2,2,2h46.55c1.1,0,2-0.9,2-2
				v-15.28C114.18,113.67,113.28,112.77,112.18,112.77L112.18,112.77z"/>
		</g>
		<g>
			<path class="st11" d="M223.3,113.27c0.83,0,1.5,0.67,1.5,1.5v15.28c0,0.83-0.67,1.5-1.5,1.5H118.04c-0.83,0-1.5-0.67-1.5-1.5
				v-15.28c0-0.83,0.67-1.5,1.5-1.5H223.3 M223.3,112.77H118.04c-1.1,0-2,0.9-2,2v15.28c0,1.1,0.9,2,2,2H223.3c1.1,0,2-0.9,2-2
				v-15.28C225.3,113.67,224.4,112.77,223.3,112.77L223.3,112.77z"/>
		</g>
		<g>
			<text transform="matrix(1 0 0 1 75.6221 125.4426)" class="st11 st6 st12 st13">EUR</text>
		</g>
		<g>
			<text transform="matrix(1 0 0 1 134.4844 125.4426)" class="st11 st6 st12 st13">1.1391 STX</text>
		</g>
		<g>
			<path class="st11" d="M112.18,134.05c0.83,0,1.5,0.67,1.5,1.5v15.28c0,0.83-0.67,1.5-1.5,1.5H65.62c-0.83,0-1.5-0.67-1.5-1.5
				v-15.28c0-0.83,0.67-1.5,1.5-1.5H112.18 M112.18,133.55H65.62c-1.1,0-2,0.9-2,2v15.28c0,1.1,0.9,2,2,2h46.55c1.1,0,2-0.9,2-2
				v-15.28C114.18,134.44,113.28,133.55,112.18,133.55L112.18,133.55z"/>
		</g>
		<g>
			<path class="st11" d="M223.3,134.05c0.83,0,1.5,0.67,1.5,1.5v15.28c0,0.83-0.67,1.5-1.5,1.5H118.04c-0.83,0-1.5-0.67-1.5-1.5
				v-15.28c0-0.83,0.67-1.5,1.5-1.5H223.3 M223.3,133.55H118.04c-1.1,0-2,0.9-2,2v15.28c0,1.1,0.9,2,2,2H223.3c1.1,0,2-0.9,2-2
				v-15.28C225.3,134.44,224.4,133.55,223.3,133.55L223.3,133.55z"/>
		</g>
		<g>
			<text transform="matrix(1 0 0 1 75.6221 146.2141)" class="st11 st6 st12 st13">EUR</text>
		</g>
		<g>
			<text transform="matrix(1 0 0 1 134.4844 146.2141)" class="st11 st6 st12 st13">1.1391 STX</text>
		</g>
		<g>
			<path class="st11" d="M112.18,155.19c0.83,0,1.5,0.67,1.5,1.5v15.28c0,0.83-0.67,1.5-1.5,1.5H65.62c-0.83,0-1.5-0.67-1.5-1.5
				v-15.28c0-0.83,0.67-1.5,1.5-1.5H112.18 M112.18,154.69H65.62c-1.1,0-2,0.9-2,2v15.28c0,1.1,0.9,2,2,2h46.55c1.1,0,2-0.9,2-2
				v-15.28C114.18,155.58,113.28,154.69,112.18,154.69L112.18,154.69z"/>
		</g>
		<g>
			<path class="st11" d="M223.3,155.19c0.83,0,1.5,0.67,1.5,1.5v15.28c0,0.83-0.67,1.5-1.5,1.5H118.04c-0.83,0-1.5-0.67-1.5-1.5
				v-15.28c0-0.83,0.67-1.5,1.5-1.5H223.3 M223.3,154.69H118.04c-1.1,0-2,0.9-2,2v15.28c0,1.1,0.9,2,2,2H223.3c1.1,0,2-0.9,2-2
				v-15.28C225.3,155.58,224.4,154.69,223.3,154.69L223.3,154.69z"/>
		</g>
		<g>
			<text transform="matrix(1 0 0 1 75.6221 167.3577)" class="st11 st6 st12 st13">EUR</text>
		</g>
		<g>
			<text transform="matrix(1 0 0 1 134.4844 167.3577)" class="st11 st6 st12 st13">1.1391 STX</text>
		</g>
		<g>
			<path class="st11" d="M112.18,175.96c0.83,0,1.5,0.67,1.5,1.5v15.28c0,0.83-0.67,1.5-1.5,1.5H65.62c-0.83,0-1.5-0.67-1.5-1.5
				v-15.28c0-0.83,0.67-1.5,1.5-1.5H112.18 M112.18,175.46H65.62c-1.1,0-2,0.9-2,2v15.28c0,1.1,0.9,2,2,2h46.55c1.1,0,2-0.9,2-2
				v-15.28C114.18,176.36,113.28,175.46,112.18,175.46L112.18,175.46z"/>
		</g>
		<g>
			<path class="st11" d="M223.3,175.96c0.83,0,1.5,0.67,1.5,1.5v15.28c0,0.83-0.67,1.5-1.5,1.5H118.04c-0.83,0-1.5-0.67-1.5-1.5
				v-15.28c0-0.83,0.67-1.5,1.5-1.5H223.3 M223.3,175.46H118.04c-1.1,0-2,0.9-2,2v15.28c0,1.1,0.9,2,2,2H223.3c1.1,0,2-0.9,2-2
				v-15.28C225.3,176.36,224.4,175.46,223.3,175.46L223.3,175.46z"/>
		</g>
		<g>
			<text transform="matrix(1 0 0 1 75.6221 188.1282)" class="st11 st6 st12 st13">EUR</text>
		</g>
		<g>
			<text transform="matrix(1 0 0 1 134.4844 188.1282)" class="st11 st6 st12 st13">1.1391 STX</text>
		</g>
		<g>
			<path class="st11" d="M112.18,197.1c0.83,0,1.5,0.67,1.5,1.5v15.28c0,0.83-0.67,1.5-1.5,1.5H65.62c-0.83,0-1.5-0.67-1.5-1.5
				V198.6c0-0.83,0.67-1.5,1.5-1.5H112.18 M112.18,196.6H65.62c-1.1,0-2,0.9-2,2v15.28c0,1.1,0.9,2,2,2h46.55c1.1,0,2-0.9,2-2V198.6
				C114.18,197.5,113.28,196.6,112.18,196.6L112.18,196.6z"/>
		</g>
		<g>
			<path class="st11" d="M223.3,197.1c0.83,0,1.5,0.67,1.5,1.5v15.28c0,0.83-0.67,1.5-1.5,1.5H118.04c-0.83,0-1.5-0.67-1.5-1.5
				V198.6c0-0.83,0.67-1.5,1.5-1.5H223.3 M223.3,196.6H118.04c-1.1,0-2,0.9-2,2v15.28c0,1.1,0.9,2,2,2H223.3c1.1,0,2-0.9,2-2V198.6
				C225.3,197.5,224.4,196.6,223.3,196.6L223.3,196.6z"/>
		</g>
		<g>
			<text transform="matrix(1 0 0 1 75.6221 209.2717)" class="st11 st6 st12 st13">EUR</text>
		</g>
		<g>
			<text transform="matrix(1 0 0 1 134.4844 209.2717)" class="st11 st6 st12 st13">1.1391 STX</text>
		</g>
		<g>
			<path class="st11" d="M112.18,217.87c0.83,0,1.5,0.67,1.5,1.5v15.28c0,0.83-0.67,1.5-1.5,1.5H65.62c-0.83,0-1.5-0.67-1.5-1.5
				v-15.28c0-0.83,0.67-1.5,1.5-1.5H112.18 M112.18,217.37H65.62c-1.1,0-2,0.9-2,2v15.28c0,1.1,0.9,2,2,2h46.55c1.1,0,2-0.9,2-2
				v-15.28C114.18,218.27,113.28,217.37,112.18,217.37L112.18,217.37z"/>
		</g>
		<g>
			<path class="st11" d="M223.3,217.87c0.83,0,1.5,0.67,1.5,1.5v15.28c0,0.83-0.67,1.5-1.5,1.5H118.04c-0.83,0-1.5-0.67-1.5-1.5
				v-15.28c0-0.83,0.67-1.5,1.5-1.5H223.3 M223.3,217.37H118.04c-1.1,0-2,0.9-2,2v15.28c0,1.1,0.9,2,2,2H223.3c1.1,0,2-0.9,2-2
				v-15.28C225.3,218.27,224.4,217.37,223.3,217.37L223.3,217.37z"/>
		</g>
		<g>
			<text transform="matrix(1 0 0 1 75.6221 230.0422)" class="st11 st6 st12 st13">EUR</text>
		</g>
		<g>
			<text transform="matrix(1 0 0 1 134.4844 230.0422)" class="st11 st6 st12 st13">1.1391 STX</text>
		</g>
		<g>
			<path class="st11" d="M112.18,239.02c0.83,0,1.5,0.67,1.5,1.5v15.28c0,0.83-0.67,1.5-1.5,1.5H65.62c-0.83,0-1.5-0.67-1.5-1.5
				v-15.28c0-0.83,0.67-1.5,1.5-1.5H112.18 M112.18,238.52H65.62c-1.1,0-2,0.9-2,2v15.28c0,1.1,0.9,2,2,2h46.55c1.1,0,2-0.9,2-2
				v-15.28C114.18,239.41,113.28,238.52,112.18,238.52L112.18,238.52z"/>
		</g>
		<g>
			<path class="st11" d="M223.3,239.02c0.83,0,1.5,0.67,1.5,1.5v15.28c0,0.83-0.67,1.5-1.5,1.5H118.04c-0.83,0-1.5-0.67-1.5-1.5
				v-15.28c0-0.83,0.67-1.5,1.5-1.5H223.3 M223.3,238.52H118.04c-1.1,0-2,0.9-2,2v15.28c0,1.1,0.9,2,2,2H223.3c1.1,0,2-0.9,2-2
				v-15.28C225.3,239.41,224.4,238.52,223.3,238.52L223.3,238.52z"/>
		</g>
		<g>
			<text transform="matrix(1 0 0 1 75.6221 251.1868)" class="st11 st6 st12 st13">EUR</text>
		</g>
		<g>
			<text transform="matrix(1 0 0 1 134.4844 251.1868)" class="st11 st6 st12 st13">1.1391 STX</text>
		</g>
	</g>
</g>
</svg>
