<?xml version="1.0" encoding="utf-8"?>
<!-- Generator: Adobe Illustrator 24.3.0, SVG Export Plug-In . SVG Version: 6.00 Build 0)  -->
<svg version="1.1" id="Layer_1" xmlns="http://www.w3.org/2000/svg" xmlns:xlink="http://www.w3.org/1999/xlink" x="0px" y="0px"
	 viewBox="0 0 100 100" style="enable-background:new 0 0 300 300;" xml:space="preserve">
<style type="text/css">
	.st0{fill:url(#SVGID_1_);}
	.st1{fill:url(#SVGID_2_);}
	.st2{fill:url(#SVGID_3_);}
	.st3{fill:url(#SVGID_4_);}
	.st4{fill:url(#SVGID_5_);}
	.st5{fill:#43AFEF;}
	.st6{fill:url(#SVGID_6_);}
	.st7{fill:url(#SVGID_7_);}
	.st8{fill:#2063AF;}
	.st9{fill:url(#SVGID_8_);}
	.st10{fill:#666666;}
	.st11{fill:#FFFFFF;}
	.st12{fill:#B3B3B3;}
	.st13{font-family:'Orbitron-Medium';}
	.st14{font-size:10px;}
	.st15{letter-spacing:2;}
	.st16{fill:none;stroke:#FFFFFF;stroke-miterlimit:10;}
	.st17{fill:none;stroke:#666666;stroke-width:3.24;stroke-miterlimit:10;}
</style>
<g>
	<path class="st10" d="M76.8,89.79c0,0.87-0.7,1.57-1.57,1.57c-0.87,0-1.57-0.7-1.57-1.57s0.7-1.57,1.57-1.57
		C76.1,88.21,76.8,88.92,76.8,89.79z M83.4,88.21c-0.87,0-1.57,0.7-1.57,1.57s0.7,1.57,1.57,1.57s1.57-0.7,1.57-1.57
		S84.27,88.21,83.4,88.21z M91.57,88.21c-0.87,0-1.57,0.7-1.57,1.57s0.7,1.57,1.57,1.57c0.87,0,1.57-0.7,1.57-1.57
		S92.44,88.21,91.57,88.21z M99.74,88.21c-0.87,0-1.57,0.7-1.57,1.57s0.7,1.57,1.57,1.57s1.57-0.7,1.57-1.57
		S100.61,88.21,99.74,88.21z M107.91,88.21c-0.87,0-1.57,0.7-1.57,1.57s0.7,1.57,1.57,1.57c0.87,0,1.57-0.7,1.57-1.57
		S108.78,88.21,107.91,88.21z M116.08,88.21c-0.87,0-1.57,0.7-1.57,1.57s0.7,1.57,1.57,1.57s1.57-0.7,1.57-1.57
		S116.95,88.21,116.08,88.21z M75.23,94.5c-0.87,0-1.57,0.7-1.57,1.57s0.7,1.57,1.57,1.57c0.87,0,1.57-0.7,1.57-1.57
		S76.1,94.5,75.23,94.5z M83.4,94.5c-0.87,0-1.57,0.7-1.57,1.57s0.7,1.57,1.57,1.57s1.57-0.7,1.57-1.57S84.27,94.5,83.4,94.5z
		 M91.57,94.5c-0.87,0-1.57,0.7-1.57,1.57s0.7,1.57,1.57,1.57c0.87,0,1.57-0.7,1.57-1.57S92.44,94.5,91.57,94.5z M99.74,94.5
		c-0.87,0-1.57,0.7-1.57,1.57s0.7,1.57,1.57,1.57s1.57-0.7,1.57-1.57S100.61,94.5,99.74,94.5z M107.91,94.5
		c-0.87,0-1.57,0.7-1.57,1.57s0.7,1.57,1.57,1.57c0.87,0,1.57-0.7,1.57-1.57S108.78,94.5,107.91,94.5z M116.08,94.5
		c-0.87,0-1.57,0.7-1.57,1.57s0.7,1.57,1.57,1.57s1.57-0.7,1.57-1.57S116.95,94.5,116.08,94.5z M75.23,100.79
		c-0.87,0-1.57,0.7-1.57,1.57c0,0.87,0.7,1.57,1.57,1.57c0.87,0,1.57-0.7,1.57-1.57C76.8,101.49,76.1,100.79,75.23,100.79z
		 M83.4,100.79c-0.87,0-1.57,0.7-1.57,1.57c0,0.87,0.7,1.57,1.57,1.57s1.57-0.7,1.57-1.57C84.97,101.49,84.27,100.79,83.4,100.79z
		 M91.57,100.79c-0.87,0-1.57,0.7-1.57,1.57c0,0.87,0.7,1.57,1.57,1.57c0.87,0,1.57-0.7,1.57-1.57
		C93.14,101.49,92.44,100.79,91.57,100.79z M99.74,100.79c-0.87,0-1.57,0.7-1.57,1.57c0,0.87,0.7,1.57,1.57,1.57s1.57-0.7,1.57-1.57
		C101.31,101.49,100.61,100.79,99.74,100.79z M107.91,100.79c-0.87,0-1.57,0.7-1.57,1.57c0,0.87,0.7,1.57,1.57,1.57
		c0.87,0,1.57-0.7,1.57-1.57C109.48,101.49,108.78,100.79,107.91,100.79z M116.08,100.79c-0.87,0-1.57,0.7-1.57,1.57
		c0,0.87,0.7,1.57,1.57,1.57s1.57-0.7,1.57-1.57C117.66,101.49,116.95,100.79,116.08,100.79z"/>
	<g>
		<rect x="72.57" y="117.23" class="st11" width="154.85" height="22.26"/>
		<rect x="72.57" y="141.38" class="st11" width="154.85" height="22.26"/>
		<rect x="72.57" y="165.53" class="st11" width="154.85" height="22.26"/>
		<g>
			<text transform="matrix(1 0 0 1 81.1779 132.3998)" class="st10 st13 st14 st15">JOURNEY</text>
		</g>
		<g>
			<text transform="matrix(1 0 0 1 82.6012 155.8051)" class="st10 st13 st14 st15">MARKETPLACE</text>
		</g>
		<g>
			<text transform="matrix(1 0 0 1 82.6012 180.2269)" class="st10 st13 st14 st15">COMMUNITY</text>
		</g>
		<rect x="72.57" y="189.53" class="st11" width="154.85" height="22.26"/>
		<g>
			<text transform="matrix(1 0 0 1 82.6012 204.2269)" class="st10 st13 st14 st15">CREATE</text>
		</g>
	</g>
</g>
</svg>
