<?xml version="1.0" encoding="utf-8"?>
<!-- Generator: Adobe Illustrator 24.3.0, SVG Export Plug-In . SVG Version: 6.00 Build 0)  -->
<svg version="1.1" id="Layer_1" xmlns="http://www.w3.org/2000/svg" xmlns:xlink="http://www.w3.org/1999/xlink" x="0px" y="0px"
	 viewBox="0 0 300 300" style="enable-background:new 0 0 300 300;" xml:space="preserve">
<style type="text/css">
	.st0{fill:url(#SVGID_1_);}
	.st1{fill:url(#SVGID_2_);}
	.st2{fill:url(#SVGID_3_);}
	.st3{fill:url(#SVGID_4_);}
	.st4{fill:url(#SVGID_5_);}
	.st5{fill:#43AFEF;}
	.st6{fill:url(#SVGID_6_);}
	.st7{fill:url(#SVGID_7_);}
	.st8{fill:#2063AF;}
	.st9{fill:url(#SVGID_8_);}
	.st10{fill:#666666;}
	.st11{fill:#FFFFFF;}
	.st12{fill:#B3B3B3;}
	.st13{fill:none;stroke:#FFFFFF;stroke-miterlimit:10;}
	.st14{fill:none;stroke:#666666;stroke-width:3.24;stroke-miterlimit:10;}
</style>
<path class="st10" d="M103.59,166.7l1.13,1.71c8.75,13.26,26.1,21.5,45.28,21.5s36.52-8.24,45.28-21.5l1.13-1.71v-33.4l-1.13-1.71
	c-8.76-13.26-26.11-21.5-45.28-21.5s-36.52,8.24-45.28,21.5l-1.13,1.71V166.7z M150,185.38c-17.67,0-33.57-7.46-41.5-19.46
	l-0.38-0.58v-30.68l0.38-0.57c7.92-12,23.83-19.46,41.5-19.46s33.57,7.46,41.5,19.46l0.38,0.57v30.68l-0.38,0.58
	C183.57,177.92,167.67,185.38,150,185.38z M145.22,162.97v7.51c0,0.47,0.38,0.86,0.86,0.86h8.8c0.47,0,0.86-0.39,0.86-0.86v-7.51
	H145.22z M162.36,147.23h4.91v-13.21h-4.91V147.23z M132.72,147.23h4.91v-13.21h-4.91V147.23z"/>
</svg>
