<?xml version="1.0" encoding="utf-8"?>
<!-- Generator: Adobe Illustrator 24.3.0, SVG Export Plug-In . SVG Version: 6.00 Build 0)  -->
<svg version="1.1" id="Layer_1" xmlns="http://www.w3.org/2000/svg" xmlns:xlink="http://www.w3.org/1999/xlink" x="0px" y="0px"
	 viewBox="50 50 200 200" style="enable-background:new 0 0 300 300;" xml:space="preserve">
<style type="text/css">
	.st0{fill:url(#SVGID_1_);}
	.st1{fill:url(#SVGID_2_);}
	.st2{fill:url(#SVGID_3_);}
	.st3{fill:url(#SVGID_4_);}
	.st4{fill:url(#SVGID_5_);}
	.st5{fill:#43AFEF;}
	.st6{fill:url(#SVGID_6_);}
	.st7{fill:url(#SVGID_7_);}
	.st8{fill:#2063AF;}
	.st9{fill:url(#SVGID_8_);}
	.st10{fill:#666666;}
	.st11{fill:#FFFFFF;}
	.st12{fill:#B3B3B3;}
	.st13{fill:none;stroke:#FFFFFF;stroke-miterlimit:10;}
	.st14{fill:none;stroke:#666666;stroke-width:3.24;stroke-miterlimit:10;}
</style>
<linearGradient id="SVGID_1_" gradientUnits="userSpaceOnUse" x1="111.1251" y1="150" x2="188.8749" y2="150">
	<stop  offset="0" style="stop-color:#2A499F"/>
	<stop  offset="0.5" style="stop-color:#00C8EA"/>
	<stop  offset="1" style="stop-color:#2A499F"/>
</linearGradient>
<path class="st0" d="M159.97,156.48l0.42-0.67c1.46-2.34,2.24-4.99,2.24-7.66c0-7.98-6.49-14.48-14.48-14.48s-14.48,6.5-14.48,14.48
	c0,7.98,6.49,14.48,14.48,14.48c2.67,0,5.32-0.77,7.66-2.24l0.67-0.42l10,10l3.49-3.49L159.97,156.48z M148.15,157.69
	c-5.26,0-9.54-4.28-9.54-9.54c0-5.26,4.28-9.54,9.54-9.54c5.26,0,9.54,4.28,9.54,9.54C157.69,153.41,153.41,157.69,148.15,157.69z
	 M183.93,142.07h4.94v-30.95h-30.94v4.94h26V142.07z M111.13,142.07h4.94v-26h26v-4.94h-30.94V142.07z M157.93,188.87h30.94v-30.94
	h-4.94v26h-26V188.87z M111.13,188.87h30.94v-4.94h-26v-26h-4.94V188.87z"/>
</svg>
