<?xml version="1.0" encoding="utf-8"?>
<!-- Generator: Adobe Illustrator 24.3.0, SVG Export Plug-In . SVG Version: 6.00 Build 0)  -->
<svg version="1.1" id="Layer_1" xmlns="http://www.w3.org/2000/svg" xmlns:xlink="http://www.w3.org/1999/xlink" x="0px" y="0px"
	 viewBox="0 0 1080 138" style="enable-background:new 0 0 1080 138;" xml:space="preserve">
<style type="text/css">
	.st0{fill:url(#SVGID_1_);}
	.st1{fill:url(#SVGID_2_);}
	.st2{fill:url(#SVGID_3_);}
	.st3{fill:url(#SVGID_4_);}
	.st4{fill:url(#SVGID_5_);}
	.st5{fill:#43AFEF;}
	.st6{fill:url(#SVGID_6_);}
	.st7{fill:url(#SVGID_7_);}
	.st8{fill:#2063AF;}
	.st9{fill:url(#SVGID_8_);}
	.st10{fill:#666666;}
	.st11{fill:#FFFFFF;}
	.st12{fill:#B3B3B3;}
	.st13{fill:none;stroke:#FFFFFF;stroke-miterlimit:10;}
	.st14{fill:none;stroke:#666666;stroke-width:3.24;stroke-miterlimit:10;}
</style>
<linearGradient id="SVGID_1_" gradientUnits="userSpaceOnUse" x1="80.8237" y1="69" x2="999.1763" y2="69">
	<stop  offset="0" style="stop-color:#2A499F"/>
	<stop  offset="0.5" style="stop-color:#00C8EA"/>
	<stop  offset="1" style="stop-color:#2A499F"/>
</linearGradient>
<path class="st0" d="M90.88,51.77c-5.55,0-10.06,4.51-10.06,10.06c0,2.41,0.88,4.75,2.47,6.58L83.8,69l-0.51,0.58
	c-1.6,1.84-2.47,4.17-2.47,6.58c0,5.55,4.51,10.06,10.06,10.06h35.83v-5.75H90.88c-2.38,0-4.31-1.93-4.31-4.31
	c0-2.25,1.77-4.14,4.03-4.29l0.28,0.01h35.83v-5.75l-35.86-0.03l-0.25,0.01c-2.26-0.15-4.03-2.03-4.03-4.29
	c0-2.38,1.93-4.31,4.31-4.31h35.83v-5.75H90.88z M136,51.77v23.95c0,5.51,4.48,10,9.99,10h24.36v-5.75H146
	c-2.34,0-4.24-1.9-4.24-4.24V51.77H136z M184.05,51.77c-5.55,0-10.06,4.51-10.06,10.06c0,2.41,0.88,4.75,2.47,6.58l0.51,0.58
	l-0.51,0.58c-1.6,1.84-2.47,4.17-2.47,6.58c0,5.55,4.51,10.06,10.06,10.06h35.83v-5.75h-35.83c-2.38,0-4.31-1.93-4.31-4.31
	c0-2.25,1.77-4.14,4.03-4.29l0.28,0.01h35.83v-5.75l-35.86-0.03l-0.25,0.01c-2.26-0.15-4.03-2.03-4.03-4.29
	c0-2.38,1.93-4.31,4.31-4.31h35.83v-5.75H184.05z M237.18,51.77c-5.55,0-10.06,4.51-10.06,10.06v14.34
	c0,5.55,4.51,10.06,10.06,10.06H273v-5.75h-35.83c-2.38,0-4.31-1.93-4.31-4.31V61.83c0-2.38,1.93-4.31,4.31-4.31H273v-5.75H237.18z
	 M373.12,85.91l5.75,0.01c0.01-1.95,0.01-6.67,0.01-9.76c0-2.41-0.88-4.75-2.47-6.58L375.9,69l0.51-0.58
	c1.59-1.83,2.47-4.17,2.47-6.58c0-5.55-4.51-10.06-10.06-10.06h-35.83v5.75h35.83c2.38,0,4.31,1.93,4.31,4.31
	c0,2.25-1.77,4.14-4.02,4.29l-0.28-0.01l-35.83,0.03v5.75l36.11-0.01c2.26,0.15,4.02,2.03,4.02,4.29
	C373.13,79.25,373.12,83.96,373.12,85.91z M386.49,85.5h5.75V51.77h-5.75V85.5z M409.77,51.77c-5.55,0-10.06,4.51-10.06,10.06v14.34
	c0,5.55,4.51,10.06,10.06,10.06h35.83v-5.75h-35.83c-2.38,0-4.31-1.93-4.31-4.31V61.83c0-2.38,1.93-4.31,4.31-4.31h35.83v-5.75
	H409.77z M299.74,85.85h5.75V57.52h19.61v-5.75h-44.96v5.75h19.6V85.85z M570.6,85.91l5.75,0.01c0.01-1.95,0.01-6.67,0.01-9.76
	c0-2.41-0.88-4.75-2.47-6.58L573.38,69l0.51-0.58c1.59-1.83,2.47-4.17,2.47-6.58c0-5.55-4.51-10.06-10.06-10.06h-35.83v5.75h35.83
	c2.38,0,4.31,1.93,4.31,4.31c0,2.25-1.77,4.14-4.02,4.29l-0.28-0.01l-35.83,0.03v5.75l36.11-0.01c2.26,0.15,4.02,2.03,4.02,4.29
	C570.61,79.25,570.6,83.96,570.6,85.91z M603.19,85.85h5.75V57.52h19.6v-5.75h-44.96v5.75h19.6V85.85z M514.6,86.13h5.75V61.76
	c0-5.51-4.48-10-9.99-10h-24.24c-5.51,0-9.99,4.48-9.99,10v24.36h5.75V71.65h32.72V86.13z M514.6,66.14h-32.72v-4.38
	c0-2.34,1.9-4.24,4.24-4.24h24.24c2.34,0,4.24,1.9,4.24,4.24V66.14z M943.41,85.91l5.75,0.01c0.01-1.95,0.01-6.67,0.01-9.76
	c0-2.41-0.88-4.75-2.47-6.58L946.2,69l0.51-0.58c1.6-1.84,2.47-4.17,2.47-6.58c0-5.55-4.51-10.06-10.06-10.06h-35.83v5.75h35.83
	c2.38,0,4.31,1.93,4.31,4.31c0,2.25-1.77,4.14-4.03,4.29l-0.28-0.01l-35.83,0.03v5.75l36.11-0.01c2.26,0.15,4.03,2.03,4.03,4.29
	C943.43,79.25,943.42,83.96,943.41,85.91z M859.08,51.77c-5.55,0-10.06,4.51-10.06,10.06c0,2.41,0.88,4.75,2.47,6.58L852,69
	l-0.51,0.58c-1.59,1.83-2.47,4.17-2.47,6.58c0,5.55,4.51,10.06,10.06,10.06h35.83v-5.75h-35.83c-2.38,0-4.31-1.93-4.31-4.31
	c0-2.25,1.77-4.14,4.02-4.29l0.28,0.01h35.83v-5.75l-35.86-0.03l-0.25,0.01c-2.26-0.15-4.02-2.03-4.02-4.29
	c0-2.38,1.93-4.31,4.31-4.31h35.83v-5.75H859.08z M669.14,51.77c-5.55,0-10.06,4.51-10.06,10.06v14.34
	c0,5.55,4.51,10.06,10.06,10.06h25.77c5.55,0,10.06-4.51,10.06-10.06V66.11h-23.93v5.75h18.18v4.31c0,2.38-1.93,4.31-4.31,4.31
	h-25.77c-2.38,0-4.31-1.93-4.31-4.31V61.83c0-2.38,1.93-4.31,4.31-4.31h35.83v-5.75H669.14z M765.82,51.77v23.95
	c0,5.51,4.48,10,9.99,10h24.36v-5.75h-24.36c-2.34,0-4.25-1.9-4.25-4.24V51.77H765.82z M805.74,51.77v23.95c0,5.51,4.48,10,9.99,10
	h24.36v-5.75h-24.36c-2.34,0-4.24-1.9-4.24-4.24V51.77H805.74z M973.16,85.93h6.05V71.89h9.97c5.51,0,9.99-4.48,9.99-10V51.77h-5.75
	V61.9c0,2.34-1.9,4.24-4.24,4.24h-24.23c-2.34,0-4.25-1.9-4.25-4.24V51.77h-5.75V61.9c0,5.51,4.48,10,9.99,10h8.21V85.93z
	 M746.7,51.77h-24.23c-5.51,0-9.99,4.48-9.99,10v24.36h5.75V71.65h32.72v14.47h5.75V61.76C756.69,56.25,752.21,51.77,746.7,51.77z
	 M750.94,66.14h-32.72v-4.38c0-2.34,1.9-4.24,4.24-4.24h24.23c2.34,0,4.25,1.9,4.25,4.24V66.14z"/>
</svg>
